<svg width="699" height="151" viewBox="0 0 699 151" fill="none" xmlns="http://www.w3.org/2000/svg">
<path d="M72.5 144.5C110.186 144.5 140.5 113.027 140.5 74.5C140.5 35.9726 110.186 4.5 72.5 4.5C34.8141 4.5 4.5 35.9726 4.5 74.5C4.5 113.027 34.8141 144.5 72.5 144.5Z" fill="#4C3D3D" stroke="#FFD95A" stroke-width="9"/>
<path d="M123.837 87.611L98.1026 102.469L95.7926 98.4675L102.335 90.6892L89.2625 68.047L57.9816 86.107L71.0541 108.749L81.0615 106.972L83.3715 110.974L57.6376 125.831L55.3276 121.83L61.8699 114.052L32.8899 63.8569L22.8826 65.6336L20.5726 61.6326L46.3065 46.7751L48.6165 50.7761L42.0741 58.5544L53.9391 79.1052L85.22 61.0452L73.355 40.4944L63.3476 42.2711L61.0376 38.2701L86.7715 23.4126L89.0815 27.4136L82.5392 35.1919L111.519 85.3867L121.527 83.61L123.837 87.611Z" fill="#FFF7D4"/>
<path d="M234.784 102H207.616V97.7762L216.352 94.6082V70.7042H183.328V94.6082L192.064 97.7762V102H164.896V97.7762L173.632 94.6082V41.6162L164.896 38.4482V34.2242H192.064V38.4482L183.328 41.6162V63.3122H216.352V41.6162L207.616 38.4482V34.2242H234.784V38.4482L226.048 41.6162V94.6082L234.784 97.7762V102ZM268.584 102.96C261.352 102.96 255.464 100.912 250.92 96.8162C246.44 92.6562 244.2 86.6082 244.2 78.6722C244.2 70.7362 246.504 64.4642 251.112 59.8562C255.72 55.1842 261.096 52.8482 267.24 52.8482C281.832 52.8482 289.128 61.4882 289.128 78.7682H253.512V79.2482C253.512 83.7922 255.112 87.6322 258.312 90.7682C261.512 93.9042 265.864 95.4722 271.368 95.4722C273.736 95.4722 275.976 95.2162 278.088 94.7042C280.2 94.1282 281.736 93.5522 282.696 92.9762L284.04 92.2082L286.824 97.2002C286.632 97.3282 286.344 97.5522 285.96 97.8722C285.64 98.1282 284.904 98.5762 283.752 99.2162C282.6 99.8562 281.352 100.432 280.008 100.944C276.616 102.288 272.808 102.96 268.584 102.96ZM280.2 72.6242C279.88 68.6562 278.568 65.6482 276.264 63.6002C274.024 61.4882 271.08 60.4322 267.432 60.4322C263.848 60.4322 260.872 61.4562 258.504 63.5042C256.136 65.4882 254.6 68.5282 253.896 72.6242H280.2ZM310.89 80.9762C310.89 86.4802 311.722 90.2242 313.386 92.2082C315.05 94.1922 317.578 95.1842 320.97 95.1842C324.362 95.1842 327.146 94.6722 329.322 93.6482L331.242 98.4482C330.986 98.7682 330.602 99.1842 330.09 99.6962C329.642 100.208 328.458 100.912 326.538 101.808C324.618 102.64 322.506 103.056 320.202 103.056C314.378 103.056 309.866 101.424 306.666 98.1602C303.466 94.8322 301.866 90.0002 301.866 83.6642V61.5842H296.778V55.9202L305.994 46.7042H310.89V54.0002H327.018V61.5842H310.89V80.9762ZM361.309 102H336.061V97.8722L344.125 94.7042V60.4322H336.061V54.6722C338.557 53.4562 341.373 52.8482 344.509 52.8482C347.645 52.8482 349.821 53.5202 351.037 54.8642C352.253 56.2082 352.925 58.1922 353.053 60.8162C353.693 58.8962 355.005 57.1682 356.989 55.6322C359.357 53.7762 362.493 52.8482 366.397 52.8482C368.125 52.8482 369.757 53.0722 371.293 53.5202C372.893 53.9682 374.045 54.4162 374.749 54.8642L375.901 55.5362V66.8642H370.141L368.893 61.1042C368.509 60.7202 367.453 60.5282 365.725 60.5282C363.997 60.5282 362.333 60.7842 360.733 61.2962C359.133 61.7442 357.885 62.3202 356.989 63.0242C355.197 64.5602 353.917 66.1282 353.149 67.7282V94.7042L361.309 97.8722V102ZM423.783 96.1442C419.111 100.752 413.223 103.056 406.119 103.056C399.015 103.056 393.127 100.752 388.455 96.1442C383.783 91.4722 381.447 85.4242 381.447 78.0002C381.447 70.5762 383.783 64.5282 388.455 59.8562C393.127 55.1842 399.015 52.8482 406.119 52.8482C413.223 52.8482 419.111 55.1842 423.783 59.8562C428.455 64.5282 430.791 70.5762 430.791 78.0002C430.791 85.4242 428.455 91.4722 423.783 96.1442ZM395.079 90.8642C397.959 93.9362 401.639 95.4722 406.119 95.4722C410.599 95.4722 414.279 93.9362 417.159 90.8642C420.039 87.7282 421.479 83.5362 421.479 78.2882C421.479 73.0402 420.007 68.7522 417.063 65.4242C414.183 62.0962 410.535 60.4322 406.119 60.4322C401.703 60.4322 398.023 62.0962 395.079 65.4242C392.199 68.7522 390.759 73.0402 390.759 78.2882C390.759 83.5362 392.199 87.7282 395.079 90.8642ZM496.978 95.4722C490.258 100.528 482.29 103.056 473.074 103.056C464.434 103.056 456.946 100.272 450.61 94.7042C447.538 92.0162 445.074 88.4962 443.218 84.1442C441.362 79.7282 440.434 74.7362 440.434 69.1682C440.434 63.6002 441.394 58.4802 443.314 53.8082C445.298 49.1362 447.922 45.3282 451.186 42.3842C457.906 36.3042 465.778 33.2642 474.802 33.2642C481.586 33.2642 487.506 34.6402 492.562 37.3922V53.0402H484.69L482.962 43.0562C481.682 41.6482 479.026 40.9442 474.994 40.9442C467.378 40.9442 461.394 43.6002 457.042 48.9122C452.69 54.2242 450.514 60.9122 450.514 68.9762C450.514 76.9762 452.754 83.3762 457.234 88.1762C461.778 92.9122 467.506 95.2802 474.418 95.2802C477.682 95.2802 480.914 94.8002 484.114 93.8402C487.314 92.8802 489.682 91.9202 491.218 90.9602L493.522 89.5202L496.978 95.4722ZM528.653 102H503.405V97.8722L511.469 94.7042V60.4322H503.405V54.6722C505.901 53.4562 508.717 52.8482 511.853 52.8482C514.989 52.8482 517.165 53.5202 518.381 54.8642C519.597 56.2082 520.269 58.1922 520.397 60.8162C521.037 58.8962 522.349 57.1682 524.333 55.6322C526.701 53.7762 529.837 52.8482 533.741 52.8482C535.469 52.8482 537.101 53.0722 538.637 53.5202C540.237 53.9682 541.389 54.4162 542.093 54.8642L543.245 55.5362V66.8642H537.485L536.237 61.1042C535.853 60.7202 534.797 60.5282 533.069 60.5282C531.341 60.5282 529.677 60.7842 528.077 61.2962C526.477 61.7442 525.229 62.3202 524.333 63.0242C522.541 64.5602 521.261 66.1282 520.493 67.7282V94.7042L528.653 97.8722V102ZM574.595 102H549.347V97.8722L557.411 94.7042V60.4322H549.347V54.6722C551.843 53.4562 554.723 52.8482 557.987 52.8482C561.315 52.8482 563.555 53.6482 564.707 55.2482C565.859 56.7842 566.435 59.1522 566.435 62.3522V94.7042L574.595 97.8722V102ZM566.819 41.8082C565.347 43.2802 563.555 44.0162 561.443 44.0162C559.331 44.0162 557.539 43.2802 556.067 41.8082C554.595 40.3362 553.859 38.5442 553.859 36.4322C553.859 34.3202 554.595 32.5282 556.067 31.0562C557.539 29.5842 559.331 28.8482 561.443 28.8482C563.555 28.8482 565.347 29.5842 566.819 31.0562C568.291 32.5282 569.027 34.3202 569.027 36.4322C569.027 38.5442 568.291 40.3362 566.819 41.8082ZM595.046 80.9762C595.046 86.4802 595.878 90.2242 597.542 92.2082C599.206 94.1922 601.734 95.1842 605.126 95.1842C608.518 95.1842 611.302 94.6722 613.478 93.6482L615.398 98.4482C615.142 98.7682 614.758 99.1842 614.246 99.6962C613.798 100.208 612.614 100.912 610.694 101.808C608.774 102.64 606.662 103.056 604.358 103.056C598.534 103.056 594.022 101.424 590.822 98.1602C587.622 94.8322 586.022 90.0002 586.022 83.6642V61.5842H580.934V55.9202L590.15 46.7042H595.046V54.0002H611.174V61.5842H595.046V80.9762ZM645.657 102H620.409V97.8722L628.473 94.7042V60.4322H620.409V54.6722C622.905 53.4562 625.785 52.8482 629.049 52.8482C632.377 52.8482 634.617 53.6482 635.769 55.2482C636.921 56.7842 637.497 59.1522 637.497 62.3522V94.7042L645.657 97.8722V102ZM637.881 41.8082C636.409 43.2802 634.617 44.0162 632.505 44.0162C630.393 44.0162 628.601 43.2802 627.129 41.8082C625.657 40.3362 624.921 38.5442 624.921 36.4322C624.921 34.3202 625.657 32.5282 627.129 31.0562C628.601 29.5842 630.393 28.8482 632.505 28.8482C634.617 28.8482 636.409 29.5842 637.881 31.0562C639.353 32.5282 640.089 34.3202 640.089 36.4322C640.089 38.5442 639.353 40.3362 637.881 41.8082ZM676.956 102.96C669.852 102.96 663.996 100.88 659.388 96.7202C654.844 92.5602 652.572 86.5442 652.572 78.6722C652.572 74.3202 653.436 70.4482 655.164 67.0562C656.892 63.6002 659.164 60.8802 661.98 58.8962C667.804 54.8642 674.172 52.8482 681.084 52.8482C683.196 52.8482 685.276 53.1042 687.324 53.6162C689.372 54.1282 690.908 54.6402 691.932 55.1522L693.468 56.0162V67.3442H687.612L686.268 61.4882C685.372 60.7842 683.644 60.4322 681.084 60.4322C675.58 60.4322 671.004 62.0962 667.356 65.4242C663.708 68.7522 661.884 72.9442 661.884 78.0002C661.884 83.0562 663.452 87.2482 666.588 90.5762C669.788 93.8402 674.012 95.4722 679.26 95.4722C681.82 95.4722 684.188 95.2162 686.364 94.7042C688.604 94.1282 690.172 93.5522 691.068 92.9762L692.412 92.2082L695.196 97.2002C695.004 97.3282 694.716 97.5522 694.332 97.8722C694.012 98.1282 693.276 98.5762 692.124 99.2162C690.972 99.8562 689.756 100.432 688.476 100.944C685.02 102.288 681.18 102.96 676.956 102.96Z" fill="black"/>
</svg>
