<svg width="145" height="151" viewBox="0 0 145 151" fill="none" xmlns="http://www.w3.org/2000/svg">
<path d="M72.5 144.5C110.186 144.5 140.5 113.027 140.5 74.5C140.5 35.9726 110.186 4.5 72.5 4.5C34.8141 4.5 4.5 35.9726 4.5 74.5C4.5 113.027 34.8141 144.5 72.5 144.5Z" fill="#4C3D3D" stroke="#FFD95A" stroke-width="9"/>
<path d="M123.837 87.611L98.1026 102.469L95.7926 98.4675L102.335 90.6892L89.2625 68.047L57.9816 86.107L71.0541 108.749L81.0615 106.972L83.3715 110.974L57.6376 125.831L55.3276 121.83L61.8699 114.052L32.8899 63.8569L22.8826 65.6336L20.5726 61.6326L46.3065 46.7751L48.6165 50.7761L42.0741 58.5544L53.9391 79.1052L85.22 61.0452L73.355 40.4944L63.3476 42.2711L61.0376 38.2701L86.7715 23.4126L89.0815 27.4136L82.5392 35.1919L111.519 85.3867L121.527 83.61L123.837 87.611Z" fill="#FFF7D4"/>
</svg>
